<?xml version="1.0" encoding="UTF-8" standalone="no"?>
<!-- Generator: Adobe Illustrator 16.0.0, SVG Export Plug-In . SVG Version: 6.00 Build 0)  -->

<svg
   xmlns:dc="http://purl.org/dc/elements/1.1/"
   xmlns:cc="http://creativecommons.org/ns#"
   xmlns:rdf="http://www.w3.org/1999/02/22-rdf-syntax-ns#"
   xmlns:svg="http://www.w3.org/2000/svg"
   xmlns="http://www.w3.org/2000/svg"
   xmlns:sodipodi="http://sodipodi.sourceforge.net/DTD/sodipodi-0.dtd"
   xmlns:inkscape="http://www.inkscape.org/namespaces/inkscape"
   version="1.1"
   id="Layer_1"
   x="0px"
   y="0px"
   width="1024"
   height="1024"
   viewBox="0 0 1024 1024"
   enable-background="new 0 0 500 500"
   xml:space="preserve"
   sodipodi:docname="DibsityFace.svg"
   inkscape:version="0.92.1 r15371"><metadata
     id="metadata127"><rdf:RDF><cc:Work
         rdf:about=""><dc:format>image/svg+xml</dc:format><dc:type
           rdf:resource="http://purl.org/dc/dcmitype/StillImage" /><dc:title /></cc:Work></rdf:RDF></metadata><defs
     id="defs125" /><sodipodi:namedview
     pagecolor="#ffffff"
     bordercolor="#666666"
     borderopacity="1"
     objecttolerance="10"
     gridtolerance="10"
     guidetolerance="10"
     inkscape:pageopacity="0"
     inkscape:pageshadow="2"
     inkscape:window-width="2560"
     inkscape:window-height="1377"
     id="namedview123"
     showgrid="false"
     inkscape:zoom="0.474"
     inkscape:cx="-761.81477"
     inkscape:cy="136.33755"
     inkscape:window-x="-8"
     inkscape:window-y="-8"
     inkscape:window-maximized="1"
     inkscape:current-layer="g516" /><g
     id="g516"
     transform="matrix(0.92916981,0,0,1.0062192,-746.78098,476.31463)"><path
       d="m 1536.4769,-391.0536 c 5.4697,5.86797 9.5711,7.9659 12.3043,16.76613 16.409,29.33987 24.6118,49.87605 30.0815,82.14818 10.9393,58.67628 35.5511,-8.80023 51.96,-32.27213 54.6933,-67.47997 155.877,-117.35256 216.0399,-32.27213 27.3482,35.20439 49.2236,76.28021 51.96,123.22054 2.7365,76.28021 -13.6725,155.496132 -24.6118,231.772875 -16.4089,123.220535 -74.5324,286.710265 -170.2464,362.993935 -98.4505,82.14818 -204.4068,138.69537 -330.2023,165.09607 -95.714,17.60392 -188.6948,5.86797 -284.4056,-11.73595 -79.3083,-17.60393 -175.01908,-41.07236 -240.65487,-93.88067 -84.77472,-67.47997 2.73644,-155.49613 49.22362,-211.24015 -27.34825,-96.81639 -123.06227,-322.72129 -30.08146,-390.1978 57.42647,-44.00808 226.97911,-44.00808 259.79381,38.1401 l 2.3524,-2.1914 c 11.8429,-22.80374 47.3294,-39.94723 66.1263,-56.75491 l 8.0932,3.20229 c -30.0815,-32.27213 -5.4697,-108.55234 10.9393,-140.82446 21.8753,-38.14011 49.2236,-70.41224 82.0415,-96.81639 41.0207,-29.33987 84.7747,-38.1401 131.2651,-20.53618 41.0207,14.66821 98.4504,38.1401 120.3258,82.14818"
       id="path28"
       inkscape:connector-curvature="0"
       style="fill:#d7d22c;stroke-width:3.34236693;fill-opacity:1" /><g
       style="fill:#827e0e;fill-opacity:1"
       id="g32"
       transform="matrix(3.2269316,0,0,3.4619318,779.05154,-504.17915)"><path
         style="fill:#827e0e;fill-opacity:1"
         d="m 232.952,34.445 c 4.504,4.245 7.429,10.93 9.639,16.684 2.084,5.424 2.057,11.801 4.979,16.846 4.297,7.417 11.065,-2.656 13.24,-6.205 2.373,-3.872 4.406,-7.643 7.562,-10.956 4.174,-4.383 8.969,-8.119 14.106,-11.3 9.419,-5.833 20.892,-9.278 31.82,-6.15 12.367,3.54 20.967,17.597 26.055,28.521 6.617,14.208 4.344,31.017 2.438,46.046 -3.363,26.523 -7.47,53.661 -16.669,78.861 -8.323,22.802 -21.07,46.154 -40.762,61.05 -22.221,16.809 -45.931,30.731 -72.409,39.714 -14.281,4.846 -29.029,8.275 -44.064,9.554 -15.904,1.352 -31.932,0.334 -47.746,-1.558 -27.824,-3.328 -57.139,-8.904 -82.58,-21.081 -10.713,-5.127 -25.152,-12.785 -25.494,-26.254 -0.286,-11.284 9.159,-21.91 16.076,-29.833 3.051,-3.495 7.509,-6.959 9.851,-10.958 1.396,-2.382 -1.772,-8.215 -2.583,-10.588 -3.128,-9.149 -6.417,-18.24 -9.368,-27.449 -5.871,-18.32 -12.749,-40.034 -7.88,-59.321 4.55,-18.021 24.455,-21.911 40.532,-22.537 15.51,-0.604 38.83,2.043 46.168,18.2 0.71,1.563 2.822,1.466 3.926,0.506 1.162,-1.009 1.83,-2.319 2.833,-3.492 1.911,-2.234 4.429,-3.943 6.829,-5.597 3.856,-2.658 7.896,-5.005 11.559,-7.938 -0.811,0.214 -1.622,0.429 -2.432,0.643 0.836,0.309 1.672,0.617 2.508,0.925 2.498,0.921 3.998,-2.47 2.432,-4.178 -7.758,-8.469 -2.334,-23.994 1.567,-33.097 5.389,-12.573 16,-23.429 26.741,-31.621 12.687,-9.677 27.993,-9.431 42.332,-4.459 11.967,4.149 25.663,9.81 32.213,21.359 1.59,2.804 5.91,0.285 4.317,-2.523 -7.05,-12.431 -21.113,-18.568 -33.964,-23.219 -7.64,-2.765 -15.126,-4.711 -23.313,-4.234 -8.697,0.506 -16.886,4.086 -24.109,8.76 -12.653,8.186 -23.995,22.283 -29.684,36.153 -4.426,10.79 -8.485,26.756 0.365,36.417 0.811,-1.393 1.622,-2.786 2.432,-4.178 -1.149,-0.424 -2.571,-1.273 -3.837,-0.925 -2.622,0.721 -5.744,3.943 -8.078,5.451 -2.948,1.904 -5.832,3.864 -8.573,6.057 -2.241,1.792 -3.579,4.342 -5.673,6.162 1.309,0.168 2.618,0.337 3.926,0.506 C 103.125,87.676 83.063,83.486 67.752,82.605 52.479,81.726 32.708,83.684 21.47,95.345 c -12.198,12.659 -9.319,33.934 -6.212,49.485 3.906,19.553 11.277,38.158 17.571,57.009 0.554,1.657 1.083,3.321 1.595,4.992 0.214,-0.811 0.429,-1.622 0.643,-2.432 -11.926,13.263 -33.367,32.456 -25.24,52.527 4.311,10.647 16.483,17.054 26.209,21.864 11.667,5.771 24.245,9.605 36.818,12.823 28.636,7.33 58.761,11.938 88.368,10.948 28.104,-0.939 55.667,-9.417 80.872,-21.573 12.273,-5.92 23.937,-13.045 35.077,-20.875 9.826,-6.906 19.127,-14.201 26.89,-23.422 15.411,-18.308 25.308,-41.161 31.915,-63.973 3.439,-11.875 5.28,-23.962 7.303,-36.13 2.509,-15.089 5.218,-30.158 6.104,-45.452 0.823,-14.218 -1.246,-26.709 -8.568,-39.058 -5.729,-9.662 -13.288,-19.062 -24.029,-23.15 -18.935,-7.207 -40.26,6.073 -52.856,19.301 -2.849,2.991 -4.785,6.548 -6.876,10.08 -1.097,1.853 -2.219,3.717 -3.553,5.41 -1.557,1.974 -1.68,2.148 -2.553,-0.372 -1.942,-5.599 -2.446,-11.428 -4.902,-16.929 -2.472,-5.536 -5.126,-11.331 -9.561,-15.509 -2.342,-2.208 -5.884,1.321 -3.533,3.536 z"
         id="path30"
         inkscape:connector-curvature="0" /></g><g
       transform="matrix(2.9983674,0,0,3.4834623,983.4193,-114.07183)"
       id="g42"><path
         style="fill:#73bf44"
         inkscape:connector-curvature="0"
         id="path36"
         d="M 129.211,89.215" /><g
         id="g40"><path
           inkscape:connector-curvature="0"
           id="path38"
           d="m 129.211,91.715 c 3.224,0 3.224,-5 0,-5 -3.224,0 -3.224,5 0,5 z" /></g></g><g
       transform="matrix(2.9983674,0,0,3.4834623,1204.9383,-502.25748)"
       id="g58"><path
         style="fill:#73bf44"
         inkscape:connector-curvature="0"
         id="path52"
         d="M 36.838,206.164" /><g
         id="g56"><path
           inkscape:connector-curvature="0"
           id="path54"
           d="m 36.838,208.664 c 3.224,0 3.224,-5 0,-5 -3.224,0 -3.224,5 0,5 z" /></g></g><ellipse
       id="ellipse90"
       ry="151.60756"
       rx="102.22837"
       cy="268.97141"
       cx="1416.0837"
       stroke-miterlimit="10"
       transform="matrix(0.92104969,-0.38944508,0.2989392,0.95427216,0,0)"
       style="fill:#4db425;stroke:#000000;stroke-width:12.95744991;stroke-miterlimit:10;fill-opacity:1" /><g
       transform="matrix(2.9983674,0,0,3.4834623,770.33912,-460.06339)"
       id="g94"><path
         inkscape:connector-curvature="0"
         d="m 80.152,249.156 c 28.657,6.843 60.165,14.622 89.644,9.212 24.712,-4.534 50.117,-16.275 69.843,-31.775 9.609,-7.55 17.733,-16.79 24.484,-26.947 8.15,-12.26 16.035,-24.621 22.844,-37.689 6.665,-12.792 11.299,-26.061 16.134,-39.593 2.157,-6.039 4.389,-11.885 5.341,-18.265 1.104,-7.401 0.102,-14.924 1.485,-22.361 0.117,-0.514 0.233,-1.028 0.351,-1.542 0.713,-3.14 -4.107,-4.473 -4.822,-1.329 -1.313,5.787 -1.615,11.67 -1.708,17.588 -0.113,7.228 -1.418,13.488 -3.877,20.269 -4.865,13.414 -9.272,26.736 -15.624,39.567 -5.997,12.114 -13.077,23.67 -20.502,34.952 -7.049,10.711 -14.562,20.576 -24.271,29.029 -18.708,16.286 -43.75,27.044 -67.722,32.592 -14.634,3.386 -29.25,2.313 -44.004,0.435 -15.587,-1.985 -30.993,-5.318 -46.265,-8.964 -3.136,-0.749 -4.466,4.072 -1.331,4.821 z"
         id="path92" /></g><ellipse
       id="ellipse104"
       ry="150.2294"
       rx="103.38102"
       cy="425.51083"
       cx="939.03119"
       stroke-miterlimit="10"
       transform="matrix(0.8752099,-0.48374335,0.37895439,0.92541535,0,0)"
       style="fill:#4db425;stroke:#000000;stroke-width:12.97093487;stroke-miterlimit:10;fill-opacity:1" /><g
       transform="matrix(2.9983674,0,0,3.4834623,768.22942,-470.61192)"
       id="g114"><path
         inkscape:connector-curvature="0"
         d="m 295.119,73.95 c 5.387,7.642 12.896,9.389 21.832,9.435 3.225,0.017 3.224,-4.984 0,-5 -6.964,-0.035 -13.231,-0.882 -17.514,-6.958 -1.841,-2.613 -6.18,-0.119 -4.318,2.523 z"
         id="path112" /></g><ellipse
       id="ellipse118"
       ry="76.826141"
       rx="54.561344"
       cy="466.53247"
       cx="973.82385"
       stroke-miterlimit="10"
       transform="matrix(0.8752099,-0.48374335,0.37895439,0.92541535,0,0)"
       style="stroke:#000000;stroke-width:12.97093487;stroke-miterlimit:10" /><ellipse
       id="ellipse120"
       ry="76.829544"
       rx="54.561344"
       cy="461.27377"
       cx="1435.4386"
       stroke-miterlimit="10"
       transform="matrix(0.8752099,-0.48374335,0.37895439,0.92541535,0,0)"
       style="stroke:#000000;stroke-width:12.97093487;stroke-miterlimit:10" /></g></svg>